<svg width="24" height="24" viewBox="0 0 24 24" fill="none" xmlns="http://www.w3.org/2000/svg">
<path d="M12.9995 13V18.585L14.8275 16.757L16.2425 18.172L11.9995 22.414L7.75653 18.172L9.17153 16.757L10.9995 18.585V13H12.9995ZM11.9995 2C13.7165 2.00008 15.3736 2.63111 16.6557 3.77312C17.9379 4.91512 18.7556 6.48846 18.9535 8.194C20.1978 8.53332 21.2833 9.2991 22.0202 10.3575C22.7571 11.416 23.0987 12.6997 22.9851 13.9844C22.8716 15.2691 22.3102 16.473 21.3991 17.3858C20.488 18.2986 19.285 18.8622 18.0005 18.978L17.9995 17C18.0011 15.4271 17.385 13.9166 16.2839 12.7935C15.1827 11.6703 13.6846 11.0245 12.112 10.995C10.5395 10.9655 9.01819 11.5547 7.87571 12.6357C6.73324 13.7168 6.06093 15.2032 6.00353 16.775L5.99953 17V18.978C4.71498 18.8623 3.51193 18.2989 2.60066 17.3862C1.68939 16.4735 1.12785 15.2696 1.0142 13.9848C0.900549 12.7001 1.24201 11.4163 1.9789 10.3578C2.71579 9.29926 3.80123 8.53339 5.04553 8.194C5.24323 6.48838 6.06093 4.91491 7.34311 3.77287C8.62528 2.63082 10.2825 1.99986 11.9995 2Z" fill="#6379AF"/>
</svg>
