<svg width="20" height="20" viewBox="0 0 20 20" fill="none" xmlns="http://www.w3.org/2000/svg">
<path d="M4.17 16C4.3766 15.4145 4.75974 14.9074 5.2666 14.5488C5.77346 14.1901 6.37909 13.9975 7 13.9975C7.62091 13.9975 8.22654 14.1901 8.7334 14.5488C9.24026 14.9074 9.6234 15.4145 9.83 16H20V18H9.83C9.6234 18.5855 9.24026 19.0926 8.7334 19.4512C8.22654 19.8099 7.62091 20.0025 7 20.0025C6.37909 20.0025 5.77346 19.8099 5.2666 19.4512C4.75974 19.0926 4.3766 18.5855 4.17 18H0V16H4.17ZM10.17 9C10.3766 8.41447 10.7597 7.90743 11.2666 7.54879C11.7735 7.19014 12.3791 6.99755 13 6.99755C13.6209 6.99755 14.2265 7.19014 14.7334 7.54879C15.2403 7.90743 15.6234 8.41447 15.83 9H20V11H15.83C15.6234 11.5855 15.2403 12.0926 14.7334 12.4512C14.2265 12.8099 13.6209 13.0025 13 13.0025C12.3791 13.0025 11.7735 12.8099 11.2666 12.4512C10.7597 12.0926 10.3766 11.5855 10.17 11H0V9H10.17ZM4.17 2C4.3766 1.41447 4.75974 0.907434 5.2666 0.54879C5.77346 0.190145 6.37909 -0.00245059 7 -0.00245059C7.62091 -0.00245059 8.22654 0.190145 8.7334 0.54879C9.24026 0.907434 9.6234 1.41447 9.83 2H20V4H9.83C9.6234 4.58553 9.24026 5.09257 8.7334 5.45121C8.22654 5.80985 7.62091 6.00245 7 6.00245C6.37909 6.00245 5.77346 5.80985 5.2666 5.45121C4.75974 5.09257 4.3766 4.58553 4.17 4H0V2H4.17Z" fill="#6379AF"/>
</svg>
