<svg width="22" height="28" viewBox="0 0 22 28" fill="none" xmlns="http://www.w3.org/2000/svg">
<path d="M1.66659 27.3333C1.31296 27.3333 0.973825 27.1928 0.723776 26.9428C0.473728 26.6927 0.333252 26.3536 0.333252 26V1.99999C0.333252 1.64637 0.473728 1.30723 0.723776 1.05718C0.973825 0.807132 1.31296 0.666656 1.66659 0.666656H20.3333C20.6869 0.666656 21.026 0.807132 21.2761 1.05718C21.5261 1.30723 21.6666 1.64637 21.6666 1.99999V26C21.6666 26.3536 21.5261 26.6927 21.2761 26.9428C21.026 27.1928 20.6869 27.3333 20.3333 27.3333H1.66659ZM14.9999 19.3333L21.6666 14L14.9999 8.66666V12.6667H6.99992V15.3333H14.9999V19.3333Z" fill="#6379AF"/>
</svg>
