<svg width="28" height="26" viewBox="0 0 28 26" fill="none" xmlns="http://www.w3.org/2000/svg">
<path d="M5.11215 3.06001C6.48112 1.83372 8.08906 0.904002 9.83481 0.329346C10.334 0.95471 10.9677 1.45952 11.6888 1.80624C12.41 2.15295 13.2 2.33267 14.0001 2.33201C14.8003 2.33267 15.5903 2.15295 16.3115 1.80624C17.0326 1.45952 17.6663 0.95471 18.1655 0.329346C19.9112 0.904002 21.5192 1.83372 22.8881 3.06001C22.5968 3.80461 22.4769 4.60526 22.5374 5.40253C22.5979 6.1998 22.8372 6.97321 23.2375 7.66535C23.6369 8.3588 24.1876 8.95328 24.8485 9.40457C25.5094 9.85587 26.2635 10.1524 27.0548 10.272C27.4289 12.0705 27.4289 13.9268 27.0548 15.7253C25.5081 15.9627 24.0815 16.872 23.2375 18.332C22.837 19.0243 22.5976 19.798 22.5371 20.5955C22.4766 21.393 22.5966 22.1939 22.8881 22.9387C21.5191 24.1645 19.9111 25.0938 18.1655 25.668C17.6662 25.0429 17.0324 24.5383 16.3113 24.1919C15.5901 23.8454 14.8002 23.6659 14.0001 23.6667C13.2 23.666 12.41 23.8457 11.6888 24.1925C10.9677 24.5392 10.334 25.044 9.83481 25.6693C8.08917 25.0951 6.48124 24.1658 5.11215 22.94C5.40368 22.1952 5.52367 21.3943 5.46319 20.5968C5.40271 19.7993 5.16332 19.0256 4.76281 18.3333C4.3632 17.6401 3.81248 17.0459 3.15159 16.5949C2.4907 16.1438 1.73665 15.8475 0.94548 15.728C0.571233 13.929 0.571233 12.0723 0.94548 10.2733C1.73677 10.1537 2.4909 9.8572 3.1518 9.40591C3.81269 8.95461 4.36335 8.36013 4.76281 7.66668C5.16312 6.97454 5.40239 6.20113 5.46287 5.40387C5.52334 4.6066 5.40347 3.80594 5.11215 3.06135V3.06001ZM16.0001 16.4627C16.4587 16.2019 16.8612 15.8531 17.1844 15.4362C17.5076 15.0193 17.7452 14.5425 17.8834 14.0334C18.0216 13.5244 18.0578 12.993 17.9898 12.4698C17.9218 11.9467 17.751 11.4422 17.4872 10.9854C17.2234 10.5285 16.8719 10.1284 16.4529 9.80793C16.0338 9.4875 15.5555 9.25312 15.0455 9.11828C14.5355 8.98345 14.0039 8.95082 13.4812 9.02229C12.9586 9.09375 12.4552 9.26789 12.0001 9.53468C11.0889 10.0689 10.426 10.9418 10.156 11.963C9.88601 12.9842 10.0309 14.0707 10.559 14.9855C11.0872 15.9002 11.9557 16.5689 12.9751 16.8457C13.9945 17.1224 15.0819 16.9847 16.0001 16.4627V16.4627Z" fill="#6379AF"/>
</svg>
