<svg width="40" height="41" viewBox="0 0 40 41" fill="none" xmlns="http://www.w3.org/2000/svg">
<path d="M20 21.4767L27.0717 28.5467L24.7133 30.905L21.6667 27.8583V37.1667H18.3333V27.855L15.2867 30.905L12.9283 28.5467L20 21.4767ZM20 3.83334C22.8616 3.83347 25.6235 4.88519 27.7603 6.78853C29.8972 8.69187 31.2602 11.3141 31.59 14.1567C33.6638 14.7222 35.4729 15.9985 36.7011 17.7626C37.9293 19.5266 38.4986 21.6662 38.3094 23.8073C38.1202 25.9485 37.1845 27.9551 35.6659 29.4764C34.1474 30.9977 32.1425 31.9369 30.0017 32.13L30 28.8333C30.0026 26.2119 28.9758 23.6943 27.1406 21.8224C25.3054 19.9506 22.8085 18.8742 20.1875 18.825C17.5666 18.7759 15.0311 19.7579 13.127 21.5596C11.2229 23.3613 10.1023 25.8387 10.0067 28.4583L10 28.8333V32.13C7.85909 31.9372 5.85402 30.9982 4.33523 29.477C2.81644 27.9558 1.88055 25.9493 1.69113 23.808C1.50171 21.6668 2.07081 19.5271 3.29895 17.763C4.5271 15.9988 6.33619 14.7223 8.41001 14.1567C8.73952 11.314 10.1024 8.69152 12.2393 6.78811C14.3763 4.8847 17.1383 3.83311 20 3.83334V3.83334Z" fill="#8C7BEE"/>
</svg>
