<svg width="32" height="32" viewBox="0 0 32 32" fill="none" xmlns="http://www.w3.org/2000/svg">
<path d="M26.6667 13.3333H5.33341V25.3333H26.6667V13.3333ZM4.00008 4H28.0001C28.3537 4 28.6928 4.14048 28.9429 4.39052C29.1929 4.64057 29.3334 4.97971 29.3334 5.33333V26.6667C29.3334 27.0203 29.1929 27.3594 28.9429 27.6095C28.6928 27.8595 28.3537 28 28.0001 28H4.00008C3.64646 28 3.30732 27.8595 3.05727 27.6095C2.80722 27.3594 2.66675 27.0203 2.66675 26.6667V5.33333C2.66675 4.97971 2.80722 4.64057 3.05727 4.39052C3.30732 4.14048 3.64646 4 4.00008 4V4ZM6.66675 8V10.6667H9.33341V8H6.66675ZM12.0001 8V10.6667H14.6667V8H12.0001ZM6.66675 14.6667H10.6667V21.3333H6.66675V14.6667Z" fill="#6379AF"/>
</svg>
